<mxfile host="app.diagrams.net" modified="2024-02-19T15:43:33.997Z" agent="Mozilla/5.0 (Windows NT 10.0; Win64; x64; rv:109.0) Gecko/20100101 Firefox/116.0" etag="wdlw_8pOuRQJGBrjQfRI" version="23.1.5" type="github">
  <diagram name="Page-1" id="kJD_zS_uHZHf3z-IyoWm">
    <mxGraphModel dx="1434" dy="737" grid="1" gridSize="10" guides="1" tooltips="1" connect="1" arrows="1" fold="1" page="1" pageScale="1" pageWidth="850" pageHeight="1100" background="#0097ED" math="0" shadow="0">
      <root>
        <mxCell id="0" />
        <mxCell id="1" parent="0" />
        <mxCell id="JvM8XVzWopGdrbEX0t1w-1" value="&lt;div&gt;&lt;span style=&quot;font-size: 14px&quot;&gt;&lt;b&gt;Programming Exercise&lt;/b&gt;&lt;/span&gt;&lt;/div&gt;&lt;div&gt;&lt;span style=&quot;font-size: 14px&quot;&gt;&lt;b&gt;Ch. 3, Lab p1: 3-6 Body Mass Index&lt;br&gt;&lt;/b&gt;&lt;/span&gt;&lt;/div&gt;&lt;div&gt;&lt;span style=&quot;font-size: 14px&quot;&gt;&lt;/span&gt;&lt;/div&gt;&lt;span style=&quot;font-size: 14px&quot;&gt;&lt;b&gt;Tristen Stegall&lt;br&gt;February 19, 2024&lt;br&gt;&lt;/b&gt;&lt;/span&gt;" style="rounded=0;whiteSpace=wrap;html=1;strokeWidth=3;" parent="1" vertex="1">
          <mxGeometry x="30" y="30" width="215" height="100" as="geometry" />
        </mxCell>
        <mxCell id="2R_6rvc2ocX8Cz4W8SL0-31" style="edgeStyle=orthogonalEdgeStyle;rounded=0;orthogonalLoop=1;jettySize=auto;html=1;entryX=0.5;entryY=0;entryDx=0;entryDy=0;" parent="1" source="JvM8XVzWopGdrbEX0t1w-4" target="2R_6rvc2ocX8Cz4W8SL0-3" edge="1">
          <mxGeometry relative="1" as="geometry" />
        </mxCell>
        <mxCell id="JvM8XVzWopGdrbEX0t1w-4" value="&lt;span style=&quot;font-size: 14px;&quot;&gt;main()&lt;/span&gt;" style="strokeWidth=3;html=1;shape=mxgraph.flowchart.terminator;whiteSpace=wrap;shadow=1;fontStyle=1;fontSize=14;" parent="1" vertex="1">
          <mxGeometry x="80" y="160" width="110" height="60" as="geometry" />
        </mxCell>
        <mxCell id="JvM8XVzWopGdrbEX0t1w-5" value="&lt;font style=&quot;font-size: 14px&quot;&gt;&lt;span style=&quot;font-size: 14px;&quot;&gt;End&lt;/span&gt;&lt;/font&gt;" style="strokeWidth=3;html=1;shape=mxgraph.flowchart.terminator;whiteSpace=wrap;shadow=1;fontStyle=1;fontSize=14;" parent="1" vertex="1">
          <mxGeometry x="80" y="470" width="110" height="60" as="geometry" />
        </mxCell>
        <mxCell id="2R_6rvc2ocX8Cz4W8SL0-1" value="&lt;div&gt;Global Constant Real BODY_MASS_MULTIPLIER&lt;/div&gt;&lt;div&gt;Global Real weight&lt;/div&gt;&lt;div&gt;Global Real height&lt;br&gt;&lt;/div&gt;" style="rounded=0;whiteSpace=wrap;html=1;strokeWidth=3;fontSize=14;fontStyle=1;align=left;" parent="1" vertex="1">
          <mxGeometry x="275" y="30" width="365" height="100" as="geometry" />
        </mxCell>
        <mxCell id="2R_6rvc2ocX8Cz4W8SL0-32" style="edgeStyle=orthogonalEdgeStyle;rounded=0;orthogonalLoop=1;jettySize=auto;html=1;entryX=0.5;entryY=0;entryDx=0;entryDy=0;" parent="1" source="2R_6rvc2ocX8Cz4W8SL0-3" target="2R_6rvc2ocX8Cz4W8SL0-4" edge="1">
          <mxGeometry relative="1" as="geometry" />
        </mxCell>
        <mxCell id="2R_6rvc2ocX8Cz4W8SL0-3" value="getInput()" style="shape=process;whiteSpace=wrap;html=1;backgroundOutline=1;strokeWidth=3;fontSize=14;fontStyle=1" parent="1" vertex="1">
          <mxGeometry x="60" y="250" width="150" height="80" as="geometry" />
        </mxCell>
        <mxCell id="2R_6rvc2ocX8Cz4W8SL0-4" value="showBMI()" style="shape=process;whiteSpace=wrap;html=1;backgroundOutline=1;strokeWidth=3;fontSize=14;fontStyle=1" parent="1" vertex="1">
          <mxGeometry x="60" y="360" width="150" height="80" as="geometry" />
        </mxCell>
        <mxCell id="2R_6rvc2ocX8Cz4W8SL0-34" style="edgeStyle=orthogonalEdgeStyle;rounded=0;orthogonalLoop=1;jettySize=auto;html=1;" parent="1" source="2R_6rvc2ocX8Cz4W8SL0-5" target="2R_6rvc2ocX8Cz4W8SL0-7" edge="1">
          <mxGeometry relative="1" as="geometry" />
        </mxCell>
        <mxCell id="2R_6rvc2ocX8Cz4W8SL0-5" value="&lt;span style=&quot;font-size: 14px;&quot;&gt;getInput()&lt;/span&gt;" style="strokeWidth=3;html=1;shape=mxgraph.flowchart.terminator;whiteSpace=wrap;shadow=1;fontStyle=1;fontSize=14;" parent="1" vertex="1">
          <mxGeometry x="350" y="160" width="110" height="60" as="geometry" />
        </mxCell>
        <mxCell id="2R_6rvc2ocX8Cz4W8SL0-35" style="edgeStyle=orthogonalEdgeStyle;rounded=0;orthogonalLoop=1;jettySize=auto;html=1;entryX=0.5;entryY=0;entryDx=0;entryDy=0;" parent="1" source="2R_6rvc2ocX8Cz4W8SL0-7" target="2R_6rvc2ocX8Cz4W8SL0-27" edge="1">
          <mxGeometry relative="1" as="geometry" />
        </mxCell>
        <mxCell id="2R_6rvc2ocX8Cz4W8SL0-7" value="&lt;div&gt;Display &quot;Enter&lt;/div&gt;&lt;div&gt;the weight&lt;/div&gt;&lt;div&gt;in pounds&quot;&lt;/div&gt;" style="shape=parallelogram;perimeter=parallelogramPerimeter;whiteSpace=wrap;html=1;fixedSize=1;strokeWidth=3;fontSize=14;fontStyle=1;size=30;rounded=1;arcSize=9;" parent="1" vertex="1">
          <mxGeometry x="330" y="250" width="150" height="80" as="geometry" />
        </mxCell>
        <mxCell id="2R_6rvc2ocX8Cz4W8SL0-40" style="edgeStyle=orthogonalEdgeStyle;rounded=0;orthogonalLoop=1;jettySize=auto;html=1;" parent="1" source="2R_6rvc2ocX8Cz4W8SL0-12" target="2R_6rvc2ocX8Cz4W8SL0-17" edge="1">
          <mxGeometry relative="1" as="geometry" />
        </mxCell>
        <mxCell id="2R_6rvc2ocX8Cz4W8SL0-12" value="Declare Real bmi" style="rounded=0;whiteSpace=wrap;html=1;strokeWidth=3;fontSize=14;fontStyle=1" parent="1" vertex="1">
          <mxGeometry x="610" y="250" width="150" height="80" as="geometry" />
        </mxCell>
        <mxCell id="2R_6rvc2ocX8Cz4W8SL0-41" style="edgeStyle=orthogonalEdgeStyle;rounded=0;orthogonalLoop=1;jettySize=auto;html=1;entryX=0.5;entryY=0;entryDx=0;entryDy=0;" parent="1" source="2R_6rvc2ocX8Cz4W8SL0-17" target="2R_6rvc2ocX8Cz4W8SL0-29" edge="1">
          <mxGeometry relative="1" as="geometry" />
        </mxCell>
        <mxCell id="2R_6rvc2ocX8Cz4W8SL0-17" value="&lt;div&gt;bmi = weight * BODY_MASS_MULTIPLIER / (height * height)&lt;/div&gt;" style="rounded=0;whiteSpace=wrap;html=1;strokeWidth=3;fontSize=14;fontStyle=1" parent="1" vertex="1">
          <mxGeometry x="580" y="360" width="210" height="80" as="geometry" />
        </mxCell>
        <mxCell id="2R_6rvc2ocX8Cz4W8SL0-19" value="Return" style="strokeWidth=3;html=1;shape=mxgraph.flowchart.terminator;whiteSpace=wrap;shadow=1;fontStyle=1;fontSize=14;" parent="1" vertex="1">
          <mxGeometry x="350" y="690" width="110" height="60" as="geometry" />
        </mxCell>
        <mxCell id="2R_6rvc2ocX8Cz4W8SL0-20" value="Return" style="strokeWidth=3;html=1;shape=mxgraph.flowchart.terminator;whiteSpace=wrap;shadow=1;fontStyle=1;fontSize=14;" parent="1" vertex="1">
          <mxGeometry x="630" y="580" width="110" height="60" as="geometry" />
        </mxCell>
        <mxCell id="2R_6rvc2ocX8Cz4W8SL0-39" style="edgeStyle=orthogonalEdgeStyle;rounded=0;orthogonalLoop=1;jettySize=auto;html=1;" parent="1" source="2R_6rvc2ocX8Cz4W8SL0-21" target="2R_6rvc2ocX8Cz4W8SL0-12" edge="1">
          <mxGeometry relative="1" as="geometry" />
        </mxCell>
        <mxCell id="2R_6rvc2ocX8Cz4W8SL0-21" value="&lt;span style=&quot;font-size: 14px;&quot;&gt;showBMI()&lt;/span&gt;" style="strokeWidth=3;html=1;shape=mxgraph.flowchart.terminator;whiteSpace=wrap;shadow=1;fontStyle=1;fontSize=14;" parent="1" vertex="1">
          <mxGeometry x="630" y="160" width="110" height="60" as="geometry" />
        </mxCell>
        <mxCell id="2R_6rvc2ocX8Cz4W8SL0-36" style="edgeStyle=orthogonalEdgeStyle;rounded=0;orthogonalLoop=1;jettySize=auto;html=1;entryX=0.5;entryY=0;entryDx=0;entryDy=0;" parent="1" source="2R_6rvc2ocX8Cz4W8SL0-27" target="2R_6rvc2ocX8Cz4W8SL0-28" edge="1">
          <mxGeometry relative="1" as="geometry" />
        </mxCell>
        <mxCell id="2R_6rvc2ocX8Cz4W8SL0-27" value="Input weight" style="shape=parallelogram;perimeter=parallelogramPerimeter;whiteSpace=wrap;html=1;fixedSize=1;strokeWidth=3;fontSize=14;fontStyle=1;size=30;rounded=1;arcSize=9;" parent="1" vertex="1">
          <mxGeometry x="330" y="360" width="150" height="80" as="geometry" />
        </mxCell>
        <mxCell id="2R_6rvc2ocX8Cz4W8SL0-37" style="edgeStyle=orthogonalEdgeStyle;rounded=0;orthogonalLoop=1;jettySize=auto;html=1;" parent="1" source="2R_6rvc2ocX8Cz4W8SL0-28" target="2R_6rvc2ocX8Cz4W8SL0-30" edge="1">
          <mxGeometry relative="1" as="geometry" />
        </mxCell>
        <mxCell id="2R_6rvc2ocX8Cz4W8SL0-28" value="Display &quot;Enter&lt;br&gt;&lt;div&gt;height&lt;/div&gt;&lt;div&gt;in inches&quot;&lt;br&gt;&lt;/div&gt;" style="shape=parallelogram;perimeter=parallelogramPerimeter;whiteSpace=wrap;html=1;fixedSize=1;strokeWidth=3;fontSize=14;fontStyle=1;size=30;rounded=1;arcSize=9;" parent="1" vertex="1">
          <mxGeometry x="330" y="470" width="150" height="80" as="geometry" />
        </mxCell>
        <mxCell id="2R_6rvc2ocX8Cz4W8SL0-29" value="Display&lt;br&gt;&quot;BMI: &quot;, bmi" style="shape=parallelogram;perimeter=parallelogramPerimeter;whiteSpace=wrap;html=1;fixedSize=1;strokeWidth=3;fontSize=14;fontStyle=1;size=30;rounded=1;arcSize=9;" parent="1" vertex="1">
          <mxGeometry x="610" y="470" width="150" height="80" as="geometry" />
        </mxCell>
        <mxCell id="2R_6rvc2ocX8Cz4W8SL0-30" value="Input height" style="shape=parallelogram;perimeter=parallelogramPerimeter;whiteSpace=wrap;html=1;fixedSize=1;strokeWidth=3;fontSize=14;fontStyle=1;size=30;rounded=1;arcSize=9;" parent="1" vertex="1">
          <mxGeometry x="330" y="580" width="150" height="80" as="geometry" />
        </mxCell>
        <mxCell id="2R_6rvc2ocX8Cz4W8SL0-33" style="edgeStyle=orthogonalEdgeStyle;rounded=0;orthogonalLoop=1;jettySize=auto;html=1;entryX=0.5;entryY=0;entryDx=0;entryDy=0;entryPerimeter=0;" parent="1" source="2R_6rvc2ocX8Cz4W8SL0-4" target="JvM8XVzWopGdrbEX0t1w-5" edge="1">
          <mxGeometry relative="1" as="geometry" />
        </mxCell>
        <mxCell id="2R_6rvc2ocX8Cz4W8SL0-38" style="edgeStyle=orthogonalEdgeStyle;rounded=0;orthogonalLoop=1;jettySize=auto;html=1;entryX=0.5;entryY=0;entryDx=0;entryDy=0;entryPerimeter=0;" parent="1" source="2R_6rvc2ocX8Cz4W8SL0-30" target="2R_6rvc2ocX8Cz4W8SL0-19" edge="1">
          <mxGeometry relative="1" as="geometry" />
        </mxCell>
        <mxCell id="2R_6rvc2ocX8Cz4W8SL0-42" style="edgeStyle=orthogonalEdgeStyle;rounded=0;orthogonalLoop=1;jettySize=auto;html=1;entryX=0.5;entryY=0;entryDx=0;entryDy=0;entryPerimeter=0;" parent="1" source="2R_6rvc2ocX8Cz4W8SL0-29" target="2R_6rvc2ocX8Cz4W8SL0-20" edge="1">
          <mxGeometry relative="1" as="geometry" />
        </mxCell>
      </root>
    </mxGraphModel>
  </diagram>
</mxfile>
